PathFileType	4	(X/Y/Z)	 s08c0203.trc
DataRate	CameraRate	NumFrames	NumMarkers	Units	OrigDataRate	OrigDataStartFrame	OrigNumFrames
200	200	7	50	mm	200	1	2000
Frame#	Time	racr			lacr			c7			jug			rlel			rdr			llel			ldr			s2			lic			ric			lasi			rasi			rpsi			lpsi			rgt			lgt			rth1			rth2			rth3			rth4			rlfc			rmfc			rsh1			rsh2			rsh3			rsh4			rlmal			rmmal			rcal			rtoe			rmt5			lth1			lth2			lth4			lth3			llfc			lmfc			llmal			lmmal			lcal			lmt5			lsh1			lsh2			lsh3			lsh4			ltoe			SBIKE			LBIKE			RBIKE			
		X1	Y1	Z1	X2	Y2	Z2	X3	Y3	Z3	X4	Y4	Z4	X5	Y5	Z5	X6	Y6	Z6	X7	Y7	Z7	X8	Y8	Z8	X9	Y9	Z9	X10	Y10	Z10	X11	Y11	Z11	X12	Y12	Z12	X13	Y13	Z13	X14	Y14	Z14	X15	Y15	Z15	X16	Y16	Z16	X17	Y17	Z17	X18	Y18	Z18	X19	Y19	Z19	X20	Y20	Z20	X21	Y21	Z21	X22	Y22	Z22	X23	Y23	Z23	X24	Y24	Z24	X25	Y25	Z25	X26	Y26	Z26	X27	Y27	Z27	X28	Y28	Z28	X29	Y29	Z29	X30	Y30	Z30	X31	Y31	Z31	X32	Y32	Z32	X33	Y33	Z33	X34	Y34	Z34	X35	Y35	Z35	X36	Y36	Z36	X37	Y37	Z37	X38	Y38	Z38	X39	Y39	Z39	X40	Y40	Z40	X41	Y41	Z41	X42	Y42	Z42	X43	Y43	Z43	X44	Y44	Z44	X45	Y45	Z45	X46	Y46	Z46	X47	Y47	Z47	X48	Y48	Z48	X49	Y49	Z49	X50	Y50	Z50	
1	0.0050	482.626783	1386.220597	-39.498359	499.794220	1395.162458	-398.234530	470.033428	1441.384703	-214.499877	451.993384	1286.572530	-205.512062	548.895788	1138.716642	31.193129	756.988771	928.933615	-53.537413	578.415003	1154.498593	-465.988563	760.906597	928.971071	-422.422619	-77.186856	1207.438356	-242.779361	110.979051	1175.837545	-385.174201	74.351965	1211.877334	-71.471906	121.415159	1114.385674	-344.743200	91.298143	1150.734664	-102.408788	-49.227100	1251.019403	-192.172023	-35.174895	1244.119476	-286.416433	-9.147439	1116.688503	-31.232233	7.932167	1064.583582	-407.949120	136.528600	1022.452095	-29.060624	222.493037	1001.838304	-30.439823	285.109665	940.593249	-37.414916	239.947263	1032.377944	-41.864926	379.508148	868.789772	-60.419918	362.038605	859.121004	-173.044741	320.245319	752.840003	-29.026666	316.200725	664.375003	-51.667855	271.582233	591.531061	-53.800683	342.894014	662.366128	-82.656143	232.799028	479.085391	-65.555007	244.777531	504.384135	-151.950461	162.791052	426.037584	-108.401581	449.280118	511.946323	-101.535832	373.321402	453.133405	-36.212389	28.752399	931.048990	-427.465850	59.302413	849.348756	-421.751398	94.225957	852.895156	-410.591948	43.322721	762.024544	-418.018349	50.226054	636.355745	-390.519918	40.561174	614.214348	-290.534538	-15.730488	219.343441	-397.032768	-2.751487	244.319718	-308.536939	-73.488466	164.157059	-356.796935	137.999948	198.471376	-416.750603	28.233061	508.738908	-421.930154	33.061352	424.985595	-402.013469	1.139387	343.062750	-407.079670	50.075438	426.346681	-367.106470	199.383761	258.730515	-346.758002	-211.450234	916.901629	-230.885983	-5.611290	83.470322	-426.306703	-8.819547	80.388049	-27.799281	
2	0.0100	482.554453	1386.168194	-39.446092	499.772215	1395.142319	-398.334228	470.027504	1441.377653	-214.470286	451.941376	1286.564166	-205.537359	548.819467	1138.673306	31.280225	756.952579	928.921212	-53.493546	578.377493	1154.443067	-466.007475	760.868529	928.971472	-422.403865	-77.130203	1207.422271	-242.943283	111.035105	1175.789805	-385.192691	74.258272	1212.016109	-71.542125	120.712560	1114.657366	-344.973221	91.202424	1150.921551	-102.467863	-49.236438	1251.037646	-192.358702	-35.093332	1244.229545	-286.635531	-9.151462	1116.773576	-31.354478	8.093472	1064.485167	-408.025905	136.504071	1022.386041	-29.267048	222.460141	1001.893654	-30.689581	285.094070	940.586535	-37.742761	239.935970	1032.392661	-42.075130	379.447746	868.685734	-60.854488	361.961284	858.988759	-173.261435	320.183173	752.827999	-29.271502	316.139116	664.352165	-51.817007	271.534108	591.482744	-53.929208	342.847974	662.324407	-82.847237	232.758655	479.050627	-65.595781	244.729339	504.328384	-152.039192	162.768549	425.943342	-108.407852	449.211245	512.000440	-101.548055	373.269507	453.197852	-36.222520	28.893996	930.999834	-427.497696	59.425657	849.273660	-421.736622	94.327637	852.824459	-410.515358	43.387711	761.956344	-418.056226	50.317019	636.291094	-390.485503	40.515620	614.201579	-290.511253	-15.742979	219.328255	-397.034431	-2.726933	244.286640	-308.514147	-73.463471	164.150086	-356.778755	137.995019	198.517534	-416.770963	28.296064	508.702429	-421.922589	33.109673	424.944124	-401.990830	1.175407	343.031346	-407.078205	50.086062	426.286068	-367.034500	199.361330	258.761039	-346.770600	-211.464479	916.885844	-230.937394	-5.609252	83.513112	-426.300410	-8.824325	80.395896	-27.827027	
3	0.0150	482.462689	1386.115164	-39.390376	499.757690	1395.103955	-398.400282	470.031253	1441.371728	-214.493549	451.889417	1286.571082	-205.569759	548.747001	1138.657414	31.362603	756.942404	928.895064	-53.475464	578.331876	1154.412415	-466.048230	760.876377	928.981470	-422.434096	-77.101658	1207.406371	-243.078111	111.122040	1175.792667	-385.225084	74.174569	1212.137138	-71.591696	120.787609	1114.585400	-345.011615	91.160825	1151.058536	-102.482943	-49.234107	1251.062621	-192.521925	-35.059373	1244.222404	-286.771033	-9.117285	1116.805250	-31.481357	8.269896	1064.412929	-408.096715	136.513615	1022.352861	-29.482740	222.484987	1001.860104	-30.909745	285.111387	940.565233	-38.042902	239.949325	1032.375086	-42.288234	379.388224	868.625939	-61.213880	361.817039	856.862605	-169.097094	320.116942	752.781190	-29.507803	316.106278	664.301536	-52.004458	271.495391	591.414221	-54.065868	342.804472	662.276568	-83.018876	232.744225	478.971742	-65.632264	244.697934	504.222642	-152.084087	162.784170	425.819115	-108.407152	449.166938	512.031221	-101.561589	373.278210	453.167350	-36.237589	29.070826	930.923260	-427.510781	59.591030	849.208244	-421.698969	94.460805	852.748006	-410.412114	43.526613	761.880093	-418.075554	50.455375	636.261342	-390.441945	40.537789	614.176161	-290.477206	-15.739057	219.313679	-397.017887	-2.768385	244.274606	-308.485624	-73.489924	164.099469	-356.802246	137.962506	198.541382	-416.758592	28.400209	508.670537	-421.911830	33.170897	424.914376	-401.971881	1.227281	342.995029	-407.053277	50.143580	426.223664	-366.972564	199.337526	258.763620	-346.735039	-211.390373	916.875345	-230.892186	-5.603742	83.504828	-426.297084	-8.793109	80.391686	-27.826732	
4	0.0200	482.377634	1385.824187	-39.956294	497.342165	1394.986248	-399.128665	470.204014	1441.442141	-214.590803	451.870855	1286.580968	-205.553889	548.716081	1138.646753	31.416702	756.949213	928.808846	-53.646123	577.788099	1155.572319	-469.975685	761.067783	928.030040	-421.081734	-77.058680	1207.408236	-243.217998	112.055513	1175.141441	-383.058948	74.286380	1211.976790	-71.453554	123.773974	1117.641092	-351.489366	91.098640	1151.197982	-102.509265	-49.450882	1251.166522	-193.009996	-34.707033	1244.015340	-286.817956	-9.104862	1116.843058	-31.607952	8.450519	1064.370091	-408.176620	136.549040	1022.322582	-29.701699	222.342355	1001.930018	-30.948441	285.106156	940.511042	-38.330057	239.977464	1032.327772	-42.491935	379.330237	868.510263	-61.585479	361.803223	858.717926	-173.789099	320.200808	752.775386	-29.731634	315.473293	664.100662	-53.007540	270.654206	591.526457	-56.037011	342.770718	662.188343	-83.207872	232.745438	478.874023	-65.677076	243.730586	505.035874	-153.922024	162.890037	425.592327	-108.446221	449.164072	512.038005	-101.564578	373.294015	453.144546	-36.243823	29.269081	930.874521	-427.547281	59.817590	849.149007	-421.605224	106.805852	859.938238	-422.872606	43.262886	762.513916	-419.492786	49.687555	637.199931	-392.665272	40.649413	614.141628	-290.447875	-15.760083	219.322114	-397.009479	-2.797649	244.258681	-308.476049	-73.531936	164.101283	-356.807422	137.185834	200.500558	-419.521455	29.385167	511.745693	-427.412755	33.244434	424.846561	-401.878654	1.264597	342.990061	-407.048908	50.202589	426.198303	-366.915361	199.265817	258.823050	-346.741838	-205.047911	917.046930	-225.483052	-5.603320	83.514686	-426.300726	-8.950012	79.926769	-28.654693	
5	0.0250	482.313509	1385.647915	-40.307312	494.116845	1394.836897	-400.065298	470.247120	1441.388085	-214.663438	451.949077	1286.246944	-205.517605	546.999257	1138.923489	30.193835	757.019160	928.615064	-53.595600	577.196823	1157.320199	-473.236011	761.317599	926.745725	-419.241940	-77.016586	1207.457984	-243.371808	112.566589	1175.510185	-385.135171	74.291677	1212.400170	-71.706273	123.285072	1118.836504	-354.054847	91.162725	1150.894723	-102.807893	-49.405752	1251.260854	-193.143083	-34.552777	1244.061134	-286.965533	-9.200861	1117.104999	-31.492989	8.591400	1064.176337	-408.275110	136.616594	1022.393207	-29.852304	221.882151	1002.263164	-32.116121	285.315353	940.489077	-38.948051	240.204147	1032.278949	-42.999391	377.979212	869.261496	-65.494871	362.499342	857.182766	-171.187871	320.368174	752.248341	-31.396969	313.593359	664.294592	-53.831194	268.935395	591.621092	-57.147585	341.348989	662.457192	-84.362040	232.906592	478.757903	-66.198695	244.082421	507.560102	-159.624885	162.947817	425.366858	-108.364684	449.217085	512.102144	-101.751079	373.287019	453.165556	-36.193747	27.378835	932.122792	-430.538206	60.050767	849.049525	-421.626351	107.005919	860.174759	-422.709987	41.939498	763.180577	-420.664101	54.403814	641.389128	-399.979538	40.895081	614.338648	-290.564898	-17.152834	220.215167	-398.045566	-4.995374	245.315200	-312.826816	-73.471934	164.153059	-356.787307	135.505048	201.346935	-420.491855	29.353475	513.161862	-430.198418	33.305499	424.845909	-401.676780	1.343467	342.961039	-407.036364	50.189650	426.507405	-367.000590	196.993532	261.118679	-349.888800	-211.595956	916.926367	-230.847352	-7.454604	86.210687	-428.839860	-9.048249	79.621264	-29.194795	
6	0.0300	482.267706	1385.569115	-40.477761	491.672935	1394.703602	-400.756100	470.301711	1441.404874	-214.676440	451.975314	1286.234542	-205.572208	549.415740	1138.345817	33.046213	757.207381	928.731638	-53.429204	578.189490	1154.840674	-467.141505	761.500678	925.757064	-417.809875	-76.957027	1207.464876	-243.524083	110.969143	1174.656246	-381.442122	74.244603	1212.493024	-71.737816	123.039746	1119.548371	-355.576690	91.069583	1151.251297	-102.725010	-49.408992	1251.332524	-193.267365	-34.553604	1244.080998	-287.068998	-9.049533	1117.047612	-31.755476	8.759472	1064.331325	-408.347582	136.661560	1022.325934	-30.075372	222.814750	1001.471614	-31.485089	285.220303	940.434319	-39.174457	240.211395	1032.235637	-43.201852	378.811516	868.886494	-66.385330	368.223931	862.826815	-193.208934	320.567345	751.455057	-33.768311	317.843497	664.185725	-49.653727	271.447452	591.176473	-54.324729	343.265145	661.444914	-81.294687	232.887767	478.597194	-66.138828	244.778711	503.522712	-151.924260	162.746549	425.186036	-108.328905	449.237372	511.988940	-101.509786	373.353110	453.105261	-36.224653	29.841576	930.773757	-427.355314	60.309588	849.089951	-421.575553	107.503737	859.881464	-422.858185	44.376749	761.749141	-417.915476	51.195318	636.167495	-390.290879	41.121156	614.406595	-290.602547	-15.376431	218.346164	-395.469963	-2.977333	244.253332	-308.470213	-73.595341	164.074403	-356.811824	137.295312	199.916275	-418.346010	29.076284	508.708679	-422.022124	33.463591	424.789797	-401.652033	1.407448	342.951599	-406.961574	50.356898	426.264842	-366.873389	199.093180	258.978573	-346.731910	-205.428142	917.369472	-225.759371	-5.513684	83.542412	-426.164579	-9.096411	79.451570	-29.489917	
7	0.0350	482.237613	1385.570558	-40.501971	491.601639	1394.634063	-400.746991	470.312107	1441.381973	-214.669149	451.978497	1286.226889	-205.572188	549.455842	1138.367288	32.953064	757.202396	928.694045	-53.457238	578.175507	1154.811565	-467.186066	761.491870	925.692597	-417.680700	-76.897313	1207.477500	-243.625326	110.904261	1174.573099	-381.159019	74.072614	1212.968264	-72.200124	122.988857	1119.874518	-356.262206	91.091538	1151.324176	-102.768831	-49.363109	1251.351097	-193.410499	-34.488922	1244.072769	-287.159810	-8.978859	1117.042194	-31.868269	8.918105	1064.342238	-408.401933	136.710996	1022.275118	-30.251891	222.876687	1001.364888	-31.689335	285.271556	940.342331	-39.483272	240.282709	1032.163163	-43.444693	380.093902	868.212237	-66.062759	368.118458	862.811855	-193.435630	320.746625	750.650537	-36.110165	317.897378	664.081146	-49.776532	271.472869	591.055143	-54.418758	343.253904	661.268190	-81.479532	232.939189	478.466758	-66.230287	244.817208	503.334517	-151.948707	163.088666	425.007930	-108.373734	449.267879	511.948637	-101.515817	373.427125	453.064559	-36.227095	30.124243	930.745964	-427.333057	60.622319	849.121947	-421.566084	107.798464	859.896990	-422.764900	44.731970	761.741102	-417.861605	51.514778	636.005953	-390.264460	41.353230	614.406243	-290.574187	-15.431362	218.373572	-395.466220	-3.074557	244.273219	-308.455044	-73.691989	164.063663	-356.835217	137.660550	198.828575	-416.702153	29.214661	508.472503	-421.678394	33.594759	424.762051	-401.651211	1.456710	342.954311	-406.965904	50.458387	426.226713	-366.826015	198.951996	259.115724	-346.702447	-205.269892	917.517329	-225.736563	-5.462530	83.503219	-426.184474	-9.103092	79.394090	-29.582939	
